# xmcd
#
# Track frame offsets: 
#        150
#        23251
#        37565
#        55109
#        76581
#        108351
#        128477
#        147980
#        189708
#        216672
#
# Disc length: 3325 seconds
#
# Revision: 1
# Processed by: cddbd v1.5.2PL0 Copyright (c) Steve Scherf et al.
# Submitted via: ExactAudioCopyFreeDBPlugin 1.0
#
DISCID=760cfb0a
DTITLE=Janis Joplin and The Kozmic Blues Band - Prisoner of Love (halcyo
DTITLE=n Records)
DYEAR=2006
DGENRE=Blues
TTITLE0=Raise Your Hand
TTITLE1=As Good As You've Been To This World
TTITLE2=Maybe
TTITLE3=Summertime
TTITLE4=To Love Somebody
TTITLE5=Your The Only One Who Really Knows
TTITLE6=Walk Right
TTITLE7=Work Me, Lord
TTITLE8=Piece Of My Heart
TTITLE9=Ball And Chain
EXTD=Janis opened for the Dead for two shows
EXTT0=
EXTT1=
EXTT2=
EXTT3=
EXTT4=
EXTT5=
EXTT6=
EXTT7=
EXTT8=
EXTT9=
PLAYORDER=
